<svg width="320" height="480" viewBox="0 0 320 480" xmlns="http://www.w3.org/2000/svg" role="img" aria-labelledby="title desc">
  <title id="title">MindMatch reading guide cover</title>
  <desc id="desc">Abstract gradient illustration of an open book with warm colors.</desc>
  <defs>
    <linearGradient id="bgGradient" x1="0%" y1="0%" x2="100%" y2="100%">
      <stop offset="0%" stop-color="#9C6CF0" />
      <stop offset="50%" stop-color="#6A8BFF" />
      <stop offset="100%" stop-color="#3BC9A4" />
    </linearGradient>
    <linearGradient id="shapeGradient" x1="0%" y1="0%" x2="100%" y2="0%">
      <stop offset="0%" stop-color="rgba(255,255,255,0.85)" />
      <stop offset="100%" stop-color="rgba(255,255,255,0.55)" />
    </linearGradient>
    <filter id="shadow" x="-10%" y="-10%" width="120%" height="120%">
      <feDropShadow dx="0" dy="12" stdDeviation="20" flood-color="rgba(36, 44, 73, 0.2)" />
    </filter>
  </defs>
  <rect x="0" y="0" width="320" height="480" rx="28" fill="url(#bgGradient)" />
  <g filter="url(#shadow)" transform="translate(40 90)">
    <path d="M0 12C0 5.37258 5.37258 0 12 0H228C234.627 0 240 5.37258 240 12V270C240 276.627 234.627 282 228 282H12C5.37258 282 0 276.627 0 270V12Z" fill="rgba(19,25,53,0.18)" />
  </g>
  <g transform="translate(60 110)">
    <path d="M0 20C0 8.95431 8.95431 0 20 0H180C191.046 0 200 8.95431 200 20V230C200 241.046 191.046 250 180 250H20C8.95431 250 0 241.046 0 230V20Z" fill="rgba(255,255,255,0.18)" />
    <path d="M24 28C24 18.0589 32.0589 10 42 10H96C105.941 10 114 18.0589 114 28V208C114 217.941 105.941 226 96 226H42C32.0589 226 24 217.941 24 208V28Z" fill="url(#shapeGradient)" />
    <path d="M98 28C98 18.0589 106.059 10 116 10H170C179.941 10 188 18.0589 188 28V208C188 217.941 179.941 226 170 226H116C106.059 226 98 217.941 98 208V28Z" fill="rgba(255,255,255,0.4)" />
    <circle cx="62" cy="86" r="24" fill="#5840D4" opacity="0.5" />
    <circle cx="146" cy="176" r="18" fill="#3BC9A4" opacity="0.8" />
    <rect x="40" y="150" width="120" height="12" rx="6" fill="rgba(26,35,88,0.25)" />
    <rect x="40" y="170" width="96" height="12" rx="6" fill="rgba(26,35,88,0.22)" />
  </g>
  <text x="50%" y="410" text-anchor="middle" font-family="'Poppins', 'Inter', 'Helvetica Neue', Arial, sans-serif" font-weight="600" font-size="26" fill="rgba(255,255,255,0.92)">
    MindMatch Reads
  </text>
</svg>
