<svg width="400" height="300" viewBox="0 0 400 300" fill="none" xmlns="http://www.w3.org/2000/svg">
  <rect width="400" height="300" rx="24" fill="#EEF2FF" />
  <circle cx="140" cy="150" r="80" fill="#C7D2FE" />
  <circle cx="240" cy="150" r="80" fill="#A5B4FC" />
  <path
    d="M160 90c20-30 60-30 80 0 35-10 65 20 55 55 30 5 40 40 15 60 10 30-15 55-45 45-15 25-50 25-65 0-30 10-55-15-45-45-25-20-15-55 15-60-10-35 20-65 55-55z"
    fill="#6366F1"
    opacity="0.7"
  />
  <path
    d="M180 140c0-15 10-25 25-25s25 10 25 25v40c0 15-10 25-25 25s-25-10-25-25v-40z"
    fill="#EEF2FF"
  />
  <path
    d="M210 135c0-10 8-18 18-18s18 8 18 18v36c0 10-8 18-18 18s-18-8-18-18v-36z"
    fill="#E0E7FF"
  />
</svg>
